<?xml version="1.0" standalone="no"?>
<!DOCTYPE svg PUBLIC "-//W3C//DTD SVG 20010904//EN"
 "http://www.w3.org/TR/2001/REC-SVG-20010904/DTD/svg10.dtd">
<svg version="1.0" xmlns="http://www.w3.org/2000/svg"
 width="419.000000pt" height="356.000000pt" viewBox="0 0 419.000000 356.000000"
 preserveAspectRatio="xMidYMid meet">

<g transform="translate(0.000000,356.000000) scale(0.100000,-0.100000)"
fill="#000000" stroke="none">
<path d="M3248 3393 c6 -2 18 -2 25 0 6 3 1 5 -13 5 -14 0 -19 -2 -12 -5z"/>
<path d="M3055 3360 c-371 -87 -706 -281 -931 -538 -94 -108 -193 -255 -235
-350 l-32 -71 42 -71 c58 -97 204 -392 230 -465 12 -33 28 -89 35 -125 10 -49
16 -60 21 -45 4 11 23 54 41 96 l34 77 -24 103 c-14 57 -30 142 -37 188 -14
102 -7 309 14 366 11 32 12 46 2 69 -7 16 -10 38 -7 48 6 26 50 58 79 58 32 0
73 -42 73 -75 0 -31 -41 -75 -69 -75 -33 0 -55 -125 -48 -274 5 -118 30 -285
45 -313 6 -10 24 14 63 78 58 99 152 207 243 279 80 64 186 200 295 379 48 80
49 82 34 112 -12 25 -13 35 -3 60 34 80 150 60 150 -26 0 -37 -31 -75 -61 -75
-10 0 -35 -32 -67 -87 -28 -49 -84 -134 -126 -190 -72 -98 -263 -420 -254
-429 8 -7 121 17 213 47 100 32 191 82 247 136 34 33 37 40 32 74 -6 32 -2 41
21 63 38 36 76 33 122 -6 20 -18 33 -26 28 -18 -14 21 -14 1013 0 1022 21 15
-54 6 -170 -22z"/>
<path d="M599 3077 c-81 -109 -180 -277 -250 -422 -107 -222 -168 -428 -200
-670 -17 -132 -6 -433 21 -559 110 -517 434 -925 842 -1060 46 -15 110 -27
173 -31 176 -11 358 -35 452 -58 l91 -23 -116 121 c-169 174 -312 368 -396
533 l-26 52 -70 0 c-38 0 -93 5 -122 11 -101 21 -306 132 -357 192 -8 10 -28
17 -50 17 -74 0 -110 86 -55 129 36 28 69 26 100 -4 19 -19 25 -34 22 -57 -3
-29 4 -37 62 -84 118 -96 265 -154 389 -154 39 0 52 3 48 13 -44 107 -98 260
-116 327 -13 47 -26 91 -29 98 -4 8 -40 26 -80 42 -153 60 -300 170 -369 278
-18 28 -40 52 -49 52 -24 0 -64 47 -64 75 0 35 42 75 78 75 55 0 91 -70 61
-119 -10 -15 -7 -26 18 -62 56 -80 142 -152 248 -206 55 -28 111 -54 124 -58
l24 -7 -7 78 c-3 44 -14 127 -22 185 -14 91 -15 145 -7 370 l10 264 -24 26
c-30 33 -30 73 2 104 30 30 64 32 99 4 35 -27 36 -81 2 -112 -21 -20 -24 -33
-30 -157 -3 -74 -7 -207 -7 -295 0 -146 2 -168 26 -245 24 -75 144 -331 179
-382 13 -18 16 -16 50 31 68 92 128 250 146 381 7 50 5 57 -16 77 -29 27 -31
62 -4 96 26 33 63 41 99 23 50 -27 56 -83 12 -124 -22 -21 -30 -40 -35 -82
-20 -159 -100 -343 -188 -436 l-29 -31 57 -99 c78 -136 208 -324 224 -324 13
0 81 108 106 171 34 84 50 138 64 227 11 70 11 75 -9 96 -42 45 -18 116 45
132 l27 7 -29 13 c-16 7 -24 13 -18 13 13 1 14 31 1 31 -5 0 -4 7 3 15 10 12
10 15 -1 15 -9 0 -10 3 -4 8 14 10 17 32 5 32 -12 0 -9 22 5 32 6 5 4 8 -5 8
-13 0 -13 1 0 10 9 6 11 13 5 18 -15 11 -17 32 -3 32 9 0 8 4 -2 10 -8 5 -10
10 -3 10 12 0 12 17 0 38 -5 7 -3 12 5 12 9 0 9 3 -2 10 -8 5 -10 10 -4 10 6
0 11 7 11 15 0 8 -3 15 -7 15 -4 0 -7 7 -7 15 0 8 4 15 8 15 4 0 7 9 6 20 -1
11 -5 20 -9 20 -11 0 -6 23 7 32 6 5 4 8 -5 8 -13 0 -13 1 0 10 9 6 11 13 5
18 -15 11 -17 32 -2 32 8 0 7 4 -3 10 -8 5 -10 10 -4 10 6 0 11 7 11 15 0 8
-5 15 -10 15 -5 0 -4 7 3 15 10 12 10 15 -1 15 -9 0 -10 3 -4 8 13 9 18 32 7
32 -5 0 -9 7 -9 15 0 8 4 15 8 15 4 0 7 9 6 20 -1 11 -5 20 -9 20 -10 0 -6 23
5 31 10 7 -61 112 -155 231 -132 166 -381 380 -588 505 -103 62 -307 163 -329
163 -9 0 -37 -29 -62 -63z"/>
<path d="M3216 2315 c-7 -28 -49 -59 -82 -60 -12 -1 -46 -22 -75 -48 -101 -88
-231 -144 -418 -181 l-114 -21 -34 -80 c-77 -182 -117 -360 -147 -667 l-4 -37
49 54 c63 68 151 133 304 223 108 63 417 218 503 252 18 7 35 16 38 21 3 5 -1
6 -8 4 -11 -5 -13 42 -12 257 1 145 5 273 9 286 4 12 5 22 2 22 -3 0 -8 -11
-11 -25z"/>
<path d="M3135 1494 c-232 -42 -402 -130 -551 -286 -118 -123 -228 -296 -284
-448 -27 -73 -100 -337 -100 -362 0 -19 237 94 401 190 l96 57 1 90 c1 99 14
148 70 264 25 51 35 85 33 109 -4 45 30 82 74 82 70 0 103 -87 49 -129 -15
-12 -37 -21 -49 -21 -50 0 -125 -176 -125 -295 l0 -66 83 57 c174 122 316 235
412 331 55 54 137 123 183 152 46 31 82 61 82 70 0 30 30 60 66 67 28 5 32 9
20 18 -9 7 -13 28 -12 61 1 49 2 50 36 55 30 5 26 7 -29 13 -105 12 -370 6
-456 -9z"/>
<path d="M3442 1164 c-87 -60 -143 -112 -365 -341 l-137 -143 64 0 c36 0 92 9
127 20 81 25 173 80 177 106 8 56 14 66 47 80 19 7 42 11 52 7 29 -10 63 -45
63 -64 0 -53 -54 -98 -103 -85 -16 4 -38 -3 -68 -22 -105 -66 -226 -98 -335
-89 l-66 5 -127 -112 c-121 -106 -200 -171 -320 -264 -61 -48 -66 -46 104 -31
330 28 602 137 817 325 107 93 241 259 221 273 -6 3 -10 76 -9 179 1 160 3
175 20 188 19 13 18 14 -10 14 -16 0 -38 3 -49 6 -14 3 -46 -13 -103 -52z"/>
<path d="M1725 1064 c-28 -68 -67 -137 -107 -188 -21 -27 -38 -52 -38 -57 0
-15 131 -159 145 -159 14 0 15 17 2 38 -5 7 -3 12 5 12 9 0 9 3 -2 10 -8 5
-10 10 -4 10 6 0 11 7 11 15 0 8 -5 15 -10 15 -5 0 -3 8 4 17 10 11 10 14 2 9
-7 -4 -13 -2 -13 3 0 6 4 11 8 11 5 0 9 7 9 15 0 8 -4 15 -9 15 -11 0 -6 23 7
32 6 5 4 8 -5 8 -13 0 -13 1 0 10 9 6 11 13 5 18 -15 11 -17 32 -2 32 8 0 7 4
-3 10 -10 6 -11 10 -2 10 14 0 12 21 -3 33 -6 4 -4 11 5 17 13 9 13 10 0 10
-9 0 -11 3 -5 8 6 4 10 14 10 22 -1 8 3 23 8 33 5 10 6 21 3 24 -3 4 -13 -11
-21 -33z"/>
</g>
</svg>